<svg width="148" height="213" viewBox="0 0 148 213" fill="none" xmlns="http://www.w3.org/2000/svg">
<path d="M0.587646 213V178.031L58.483 129.726C62.6184 126.17 67.3446 122.219 72.6615 117.872C78.1753 113.328 83.3939 108.488 88.3169 103.351C93.437 98.2145 97.5723 92.7816 100.723 87.0522C104.071 81.3227 105.745 75.3957 105.745 69.2713C105.745 60.7761 103.086 53.8612 97.7692 48.5269C92.6491 43.1927 85.0676 40.5256 75.0246 40.5256C65.5723 40.5256 58.0891 42.6989 52.5753 47.0452C47.2584 51.1941 43.9106 56.5283 42.5323 63.048H1.76918C2.95072 49.0208 7.08611 37.4632 14.1753 28.3753C21.4615 19.0897 30.6183 12.1749 41.6461 7.63095C52.6739 3.08694 64.2922 0.814941 76.5015 0.814941C89.6953 0.814941 101.708 3.2845 112.538 8.22362C123.369 13.1628 131.935 20.3739 138.237 29.857C144.538 39.1427 147.689 50.7002 147.689 64.5297C147.689 76.3836 145.425 87.151 140.895 96.8316C136.563 106.315 130.557 115.205 122.877 123.503C115.197 131.603 106.532 139.407 96.883 146.914L63.8 173.882H147.394V213H0.587646Z" fill="url(#paint0_linear_27_265)" fill-opacity="0.1"/>
<defs>
<linearGradient id="paint0_linear_27_265" x1="74.1384" y1="0.814941" x2="74.1384" y2="213" gradientUnits="userSpaceOnUse">
<stop stop-color="white"/>
<stop offset="1" stop-color="white" stop-opacity="0"/>
</linearGradient>
</defs>
</svg>
