<svg width="160" height="212" viewBox="0 0 160 212" fill="none" xmlns="http://www.w3.org/2000/svg">
<path d="M82.1213 211.763C72.2527 211.763 62.7711 210.596 53.6765 208.261C44.5818 205.927 36.2612 202.231 28.7147 197.174C21.1681 192.116 14.8792 185.697 9.84817 177.916C4.8171 169.94 1.72107 160.409 0.560059 149.321H41.7761C43.1305 154.767 45.7428 159.339 49.6129 163.035C53.6765 166.536 58.5139 169.065 64.1256 170.621C69.9307 172.177 76.026 172.955 82.4116 172.955C86.6685 172.955 90.8289 172.566 94.8925 171.788C99.1494 171.01 102.923 169.649 106.212 167.703C109.695 165.758 112.404 163.132 114.339 159.825C116.274 156.518 117.242 152.336 117.242 147.278C117.242 142.61 116.371 138.719 114.63 135.607C112.888 132.495 110.566 129.966 107.664 128.021C104.761 126.075 101.278 124.714 97.2145 123.936C93.3444 123.158 89.1842 122.768 84.7336 122.768H60.9328V87.1707H76.8967C81.9279 87.1707 86.4751 86.6845 90.5387 85.7118C94.6022 84.5447 97.9884 82.9884 100.698 81.0432C103.6 78.9034 105.825 76.3747 107.373 73.4568C108.921 70.3445 109.695 66.8431 109.695 62.9526C109.695 57.1169 108.438 52.5456 105.922 49.2387C103.407 45.7373 99.9236 43.2085 95.473 41.6523C91.0223 40.096 85.8946 39.318 80.0895 39.318C74.6715 39.318 69.5436 40.1933 64.7061 41.944C60.062 43.5003 56.1919 45.8346 53.096 48.9469C50 52.0592 47.9682 55.8524 47.0006 60.3265H6.65538C7.8164 49.8222 10.6222 40.8742 15.0727 33.4823C19.5233 25.8959 25.2316 19.6711 32.1977 14.808C39.1638 9.94495 46.9038 6.44354 55.418 4.30377C64.1256 1.96951 73.1234 0.802368 82.4116 0.802368C91.3126 0.802368 99.8268 1.77499 107.954 3.72022C116.081 5.66545 123.337 8.87508 129.723 13.3491C136.302 17.6286 141.526 23.3672 145.397 30.5644C149.267 37.7617 151.202 46.4182 151.202 56.5333C151.202 62.7581 150.137 68.5938 148.009 74.0404C146.074 79.487 143.171 84.3502 139.301 88.6296C135.625 92.7146 131.271 96.1187 126.24 98.8421C133.786 100.982 139.979 104.483 144.816 109.346C149.654 114.209 153.233 119.948 155.555 126.562C158.071 133.175 159.329 140.276 159.329 147.862C159.329 160.311 157.007 170.719 152.363 179.083C147.912 187.253 141.914 193.77 134.367 198.633C126.82 203.301 118.5 206.705 109.405 208.845C100.31 210.79 91.216 211.763 82.1213 211.763Z" fill="url(#paint0_linear_27_267)" fill-opacity="0.1"/>
<defs>
<linearGradient id="paint0_linear_27_267" x1="79.9444" y1="0.802368" x2="79.9444" y2="211.763" gradientUnits="userSpaceOnUse">
<stop stop-color="white"/>
<stop offset="1" stop-color="white" stop-opacity="0"/>
</linearGradient>
</defs>
</svg>
