<svg width="38" height="38" viewBox="0 0 38 38" fill="none" xmlns="http://www.w3.org/2000/svg">
<g clip-path="url(#clip0_142_178)">
<path d="M0 6.33333C0 5.4625 0.7125 4.75 1.58333 4.75H28.5C29.3708 4.75 30.0833 5.4625 30.0833 6.33333C30.0833 7.20417 29.3708 7.91667 28.5 7.91667H1.58333C0.7125 7.91667 0 7.20417 0 6.33333ZM28.5 30.0833H1.58333C0.7125 30.0833 0 30.7958 0 31.6667C0 32.5375 0.7125 33.25 1.58333 33.25H28.5C29.3708 33.25 30.0833 32.5375 30.0833 31.6667C30.0833 30.7958 29.3708 30.0833 28.5 30.0833ZM36.4167 17.4167H9.5C8.62917 17.4167 7.91667 18.1292 7.91667 19C7.91667 19.8708 8.62917 20.5833 9.5 20.5833H36.4167C37.2875 20.5833 38 19.8708 38 19C38 18.1292 37.2875 17.4167 36.4167 17.4167Z" fill="#F3BE7C"/>
</g>
<defs>
<clipPath id="clip0_142_178">
<rect width="38" height="38" fill="white"/>
</clipPath>
</defs>
</svg>
