<svg width="45" height="45" viewBox="0 0 45 45" fill="none" xmlns="http://www.w3.org/2000/svg">
<path d="M45 22.5C45 18.0499 43.6804 13.6998 41.2081 9.99967C38.7357 6.29956 35.2217 3.41569 31.1104 1.71271C26.999 0.00974116 22.475 -0.435835 18.1105 0.432333C13.7459 1.3005 9.73678 3.44342 6.5901 6.5901C3.44342 9.73678 1.3005 13.7459 0.432333 18.1105C-0.435835 22.475 0.0097405 26.999 1.71271 31.1104C3.41568 35.2217 6.29956 38.7357 9.99967 41.2081C13.6998 43.6804 18.0499 45 22.5 45C28.4654 44.9935 34.1846 42.6209 38.4028 38.4028C42.6209 34.1846 44.9935 28.4654 45 22.5ZM15 22.5C14.9986 21.1275 15.5002 19.802 16.41 18.7744C16.9556 18.1612 17.4863 17.58 17.8669 17.1994L23.1619 11.8125C23.3314 11.6252 23.5371 11.4742 23.7664 11.3684C23.9958 11.2626 24.2442 11.2042 24.4967 11.1968C24.7492 11.1893 25.0006 11.233 25.2358 11.3252C25.471 11.4173 25.6851 11.556 25.8654 11.733C26.0456 11.91 26.1883 12.1215 26.2847 12.355C26.3812 12.5885 26.4295 12.839 26.4267 13.0916C26.4239 13.3442 26.3701 13.5936 26.2686 13.8249C26.167 14.0562 26.0197 14.2645 25.8356 14.4375L20.5313 19.8375C20.1806 20.19 19.7044 20.715 19.2188 21.2606C18.9166 21.6032 18.7499 22.0442 18.7499 22.5009C18.7499 22.9577 18.9166 23.3987 19.2187 23.7412C19.7025 24.285 20.1788 24.81 20.5181 25.1512L25.8356 30.5625C26.0197 30.7355 26.167 30.9438 26.2686 31.1751C26.3701 31.4064 26.4239 31.6558 26.4267 31.9084C26.4295 32.161 26.3812 32.4115 26.2847 32.645C26.1883 32.8785 26.0456 33.09 25.8654 33.267C25.6851 33.444 25.471 33.5827 25.2358 33.6748C25.0006 33.767 24.7492 33.8106 24.4967 33.8032C24.2442 33.7958 23.9958 33.7374 23.7664 33.6316C23.537 33.5258 23.3314 33.3748 23.1619 33.1875L17.8575 27.7894C17.4825 27.4144 16.9575 26.8387 16.4156 26.2275C15.5029 25.2005 14.9992 23.874 15 22.5Z" fill="white"/>
</svg>
