<svg width="45" height="45" viewBox="0 0 45 45" fill="none" xmlns="http://www.w3.org/2000/svg">
<path d="M0 22.5C0 26.9501 1.3196 31.3002 3.79193 35.0003C6.26427 38.7004 9.77829 41.5843 13.8896 43.2873C18.001 44.9903 22.525 45.4358 26.8895 44.5677C31.2541 43.6995 35.2632 41.5566 38.4099 38.4099C41.5566 35.2632 43.6995 31.2541 44.5677 26.8895C45.4358 22.525 44.9903 18.001 43.2873 13.8896C41.5843 9.77829 38.7004 6.26427 35.0003 3.79193C31.3002 1.3196 26.9501 0 22.5 0C16.5346 0.00645203 10.8154 2.37905 6.59722 6.59722C2.37905 10.8154 0.00645203 16.5346 0 22.5ZM30 22.5C30.0014 23.8725 29.4998 25.198 28.59 26.2256C28.0444 26.8388 27.5138 27.42 27.1331 27.8006L21.8381 33.1875C21.6686 33.3748 21.463 33.5258 21.2336 33.6316C21.0042 33.7374 20.7558 33.7958 20.5033 33.8032C20.2508 33.8106 19.9994 33.767 19.7642 33.6748C19.529 33.5827 19.3149 33.444 19.1346 33.267C18.9544 33.09 18.8117 32.8785 18.7153 32.645C18.6188 32.4115 18.5705 32.161 18.5733 31.9084C18.5761 31.6558 18.6299 31.4064 18.7314 31.1751C18.833 30.9438 18.9803 30.7355 19.1644 30.5625L24.4688 25.1625C24.8194 24.81 25.2956 24.285 25.7812 23.7394C26.0834 23.3968 26.2501 22.9558 26.2501 22.4991C26.2501 22.0423 26.0834 21.6013 25.7812 21.2588C25.2975 20.715 24.8213 20.19 24.4819 19.8488L19.1644 14.4375C18.9803 14.2645 18.833 14.0562 18.7314 13.8249C18.6299 13.5936 18.5761 13.3442 18.5733 13.0916C18.5705 12.839 18.6188 12.5885 18.7153 12.355C18.8117 12.1215 18.9544 11.91 19.1346 11.733C19.3149 11.556 19.529 11.4173 19.7642 11.3252C19.9994 11.233 20.2508 11.1894 20.5033 11.1968C20.7558 11.2042 21.0042 11.2626 21.2336 11.3684C21.463 11.4742 21.6686 11.6252 21.8381 11.8125L27.1425 17.2106C27.5175 17.5856 28.0425 18.1613 28.5844 18.7725C29.4971 19.7995 30.0008 21.126 30 22.5Z" fill="white"/>
</svg>
