<svg width="53" height="53" viewBox="0 0 53 53" fill="none" xmlns="http://www.w3.org/2000/svg">
<g clip-path="url(#clip0_27_229)">
<path d="M8.83333 8.83333C11.2691 8.83333 13.25 6.85246 13.25 4.41667C13.25 1.98087 11.2691 0 8.83333 0C6.39754 0 4.41667 1.98087 4.41667 4.41667C4.41667 6.85246 6.39754 8.83333 8.83333 8.83333ZM8.83333 2.20833C10.0523 2.20833 11.0417 3.19987 11.0417 4.41667C11.0417 5.63346 10.0523 6.625 8.83333 6.625C7.61433 6.625 6.625 5.63346 6.625 4.41667C6.625 3.19987 7.61433 2.20833 8.83333 2.20833ZM19.875 11.0417C22.3108 11.0417 24.2917 9.06079 24.2917 6.625C24.2917 4.18921 22.3108 2.20833 19.875 2.20833C17.4392 2.20833 15.4583 4.18921 15.4583 6.625C15.4583 9.06079 17.4392 11.0417 19.875 11.0417ZM19.875 4.41667C21.094 4.41667 22.0833 5.40821 22.0833 6.625C22.0833 7.84179 21.094 8.83333 19.875 8.83333C18.656 8.83333 17.6667 7.84179 17.6667 6.625C17.6667 5.40821 18.656 4.41667 19.875 4.41667ZM30.9167 8.83333C33.3525 8.83333 35.3333 6.85246 35.3333 4.41667C35.3333 1.98087 33.3525 0 30.9167 0C28.4809 0 26.5 1.98087 26.5 4.41667C26.5 6.85246 28.4809 8.83333 30.9167 8.83333ZM30.9167 2.20833C32.1357 2.20833 33.125 3.19987 33.125 4.41667C33.125 5.63346 32.1357 6.625 30.9167 6.625C29.6977 6.625 28.7083 5.63346 28.7083 4.41667C28.7083 3.19987 29.6977 2.20833 30.9167 2.20833ZM13.3869 18.5456C14.0207 15.476 16.7988 13.25 19.9876 13.25C23.1765 13.25 25.9501 15.4782 26.5883 18.5456C26.7142 19.1418 26.436 19.875 25.5063 19.875C24.9961 19.875 24.5368 19.5173 24.4286 18.9961C24.0024 16.9468 22.1341 15.4583 19.9876 15.4583C17.8411 15.4583 15.9729 16.9445 15.5467 18.9961C15.423 19.5945 14.8312 19.9677 14.2415 19.8529C13.6431 19.7292 13.261 19.144 13.3847 18.5478L13.3869 18.5456ZM30.9167 11.0417C34.1055 11.0417 36.8836 13.2699 37.5174 16.3372C37.6433 16.9357 37.2656 17.6865 36.4353 17.6667C35.9252 17.6534 35.4658 17.3067 35.3576 16.7878C34.9336 14.7384 33.0654 13.25 30.9167 13.25C30.2983 13.25 29.6977 13.3692 29.1323 13.6055C28.578 13.8418 27.9222 13.5746 27.6881 13.0115C27.4562 12.4484 27.7212 11.8035 28.2843 11.5672C29.1191 11.2183 30.0046 11.0417 30.9167 11.0417ZM2.23263 16.3372C2.86642 13.2677 5.6445 11.0417 8.83333 11.0417C9.74538 11.0417 10.6309 11.2183 11.4657 11.5672C12.0288 11.8013 12.2938 12.4484 12.0619 13.0115C11.8278 13.5746 11.172 13.8396 10.6177 13.6055C10.0523 13.3715 9.45388 13.25 8.83333 13.25C6.68463 13.25 4.81858 14.7362 4.39238 16.7878C4.28417 17.3089 3.82042 17.7395 3.31471 17.6667C2.42033 17.5386 2.10675 16.9357 2.23263 16.3372ZM51.1914 21.3193C50.096 20.3211 48.6717 19.8308 47.1965 19.8794C45.7169 19.9501 44.3522 20.5905 43.3562 21.6858L35.1147 30.7444C34.4213 28.2976 32.1666 26.5 29.4989 26.5H7.72917C3.46708 26.5 0 29.9671 0 34.2292V45.2708C0 49.5329 3.46708 53 7.72917 53H20.9019C26.8798 53 32.5884 50.4405 36.5656 45.9753L51.5955 29.1058C53.6073 26.8489 53.4262 23.3553 51.1914 21.3193ZM49.9481 27.6373L34.9182 44.5067C31.3605 48.5016 26.2505 50.7917 20.9019 50.7917H7.72917C4.68388 50.7917 2.20833 48.3139 2.20833 45.2708V34.2292C2.20833 31.1861 4.68388 28.7083 7.72917 28.7083H29.4967C31.4953 28.7083 33.125 30.3359 33.125 32.3344C33.125 34.1276 31.7868 35.6712 30.0378 35.9207L16.4322 37.5483C15.8271 37.6212 15.3943 38.171 15.4672 38.7761C15.5378 39.3812 16.0899 39.8008 16.695 39.7412L30.327 38.1092C32.5818 37.7868 34.3992 36.1703 35.0639 34.0812L44.9926 23.172C45.591 22.514 46.4125 22.1275 47.3025 22.0855C48.1814 22.0458 49.0449 22.3505 49.7052 22.9534C51.05 24.179 51.1583 26.277 49.9481 27.6373Z" fill="#F3BE7C"/>
</g>
<defs>
<clipPath id="clip0_27_229">
<rect width="53" height="53" fill="white"/>
</clipPath>
</defs>
</svg>
