<svg width="53" height="53" viewBox="0 0 53 53" fill="none" xmlns="http://www.w3.org/2000/svg">
<path d="M53 17.6667C53 21.178 51.728 24.952 49.1685 29.0374C48.8351 28.2424 48.4177 27.4783 47.8833 26.7783C49.778 23.479 50.7917 20.4249 50.7917 17.6667C50.7917 10.7325 45.0036 4.41671 38.6458 4.41671C33.4474 4.41671 30.7864 6.46383 28.3042 8.74283L18.8282 18.1238C17.5275 19.4245 17.2846 21.4385 18.2695 22.8055C18.8945 23.6734 19.8132 24.1968 20.8577 24.2807C21.8868 24.358 22.8982 23.9936 23.627 23.2648L33.8869 12.8746L35.457 14.4249L31.7404 18.1879L43.5748 28.5759C45.7037 30.4419 46.2381 33.5601 44.8181 35.8303C43.9436 37.2303 42.5126 38.1711 40.8983 38.4074C40.3794 38.4847 39.856 38.4891 39.3437 38.4162C39.6307 39.7765 39.4254 41.212 38.6768 42.4111C37.8 43.8134 36.369 44.7519 34.7547 44.9882C33.9885 45.1008 33.2222 45.0523 32.4978 44.8535C32.5862 45.9886 32.341 47.1369 31.7205 48.124C30.846 49.5241 29.415 50.4649 27.8007 50.7012C27.5291 50.7409 27.2597 50.7608 26.9902 50.7608C25.6498 50.7608 24.3469 50.2772 23.3266 49.3806L16.1694 42.9588C5.28896 33.1272 0 24.8548 0 17.6667C0 9.43183 6.70892 2.20837 14.3542 2.20837C18.232 2.20837 20.9085 3.23083 23.0528 4.62208L21.4363 6.22312C19.6409 5.15208 17.4547 4.41671 14.3542 4.41671C7.99858 4.41671 2.20833 10.7325 2.20833 17.6667C2.20833 24.104 7.40233 32.0628 17.6468 41.3202L24.7907 47.731C25.5217 48.3736 26.5022 48.6585 27.4805 48.5193C28.4676 48.3758 29.3112 47.8193 29.85 46.9558C30.7025 45.5955 30.3469 43.6919 29.0219 42.5303L21.6549 35.5277L23.1742 33.9245L31.7669 42.0357C32.4757 42.6584 33.4585 42.9543 34.4345 42.8064C35.4217 42.6628 36.2652 42.1063 36.8063 41.2429C37.6565 39.8848 37.301 37.9812 35.976 36.8196L27.772 29.393L29.2472 27.75L37.884 35.4372C38.6193 36.0798 39.5954 36.3691 40.5781 36.2278C41.5653 36.082 42.4066 35.5277 42.9477 34.6642C43.7979 33.3039 43.4423 31.4003 42.1173 30.241L30.1857 19.7668L25.1927 24.8239C24.1084 25.9082 22.6553 26.5045 21.1426 26.5045C19.3075 26.5045 17.4701 25.482 16.4764 24.0996C14.8665 21.8647 15.2066 18.6251 17.2692 16.5625L26.7782 7.15062C29.5122 4.63754 32.6546 2.21279 38.6436 2.21279C46.2911 2.21279 52.9978 9.43625 52.9978 17.6711L53 17.6667Z" fill="#F3BE7C"/>
</svg>
