<svg width="74" height="53" viewBox="0 0 74 53" fill="none" xmlns="http://www.w3.org/2000/svg">
<path d="M13.3142 45.8404V52.6295C11.8434 52.8752 10.49 52.9963 9.2539 52.9963C6.14726 52.9963 3.82921 52.3874 2.29606 51.1697C0.766578 49.952 0 48.1291 0 45.7083C0 44.1495 0.348438 42.8144 1.04899 41.7104C1.74954 40.6064 2.79854 39.7591 4.20332 39.1759C5.60809 38.5927 7.34664 38.2993 9.42996 38.2993C10.6037 38.2993 11.7297 38.4057 12.8044 38.6184V42.1395C11.8251 41.9451 10.8237 41.8498 9.80775 41.8498C8.53868 41.8571 7.51903 42.0001 6.75246 42.2862C5.98588 42.5687 5.42837 42.9978 5.08359 43.5663C4.73882 44.1385 4.56643 44.8721 4.56643 45.7743C4.56643 46.9994 4.92588 47.9237 5.64111 48.5435C6.35633 49.1634 7.46034 49.4752 8.94948 49.4752H9.23924V45.8404H13.3179H13.3142Z" fill="white"/>
<path d="M23.8922 52.8019L20.5765 48.0154L19.5898 47.986V52.8019H15.2875V38.9082C16.043 38.7285 16.894 38.5817 17.8403 38.468C18.7866 38.3543 19.6669 38.2993 20.4811 38.2993C22.7515 38.2993 24.4607 38.6954 25.6087 39.4877C26.7604 40.2799 27.3363 41.4977 27.3363 43.1408C27.3363 44.1018 27.1162 44.9271 26.6724 45.6166C26.2323 46.3062 25.5977 46.8527 24.7725 47.2525L28.6787 52.8019H23.8922ZM19.5898 44.8134C20.0483 44.8721 20.5178 44.9014 21.0019 44.9014C21.7612 44.9014 22.3297 44.7657 22.7001 44.4943C23.0706 44.2229 23.2577 43.7717 23.2577 43.1408C23.2577 42.543 23.0633 42.0955 22.6781 41.8058C22.293 41.516 21.7098 41.3693 20.9359 41.3693C20.5288 41.3693 20.0813 41.4096 19.5935 41.494V44.8097L19.5898 44.8134Z" fill="white"/>
<path d="M31.8734 52.138C30.7033 51.5622 29.801 50.7259 29.1702 49.6292C28.5393 48.5289 28.2239 47.2048 28.2239 45.6496C28.2239 44.0945 28.5393 42.7704 29.1665 41.67C29.7937 40.5697 30.696 39.7334 31.866 39.1613C33.0361 38.5891 34.4225 38.2993 36.029 38.2993C37.6355 38.2993 39.0146 38.5891 40.1883 39.1649C41.362 39.7408 42.2606 40.5807 42.8915 41.6847C43.5187 42.7887 43.8341 44.1091 43.8341 45.6496C43.8341 47.1901 43.5187 48.5105 42.8878 49.6145C42.257 50.7149 41.3547 51.5548 40.181 52.1343C39.0073 52.7102 37.6245 52.9999 36.0327 52.9999C34.4408 52.9999 33.0507 52.7139 31.8807 52.138M38.5158 48.5875C39.0806 47.9493 39.3631 46.9957 39.3631 45.7267C39.3631 44.4576 39.077 43.4049 38.5084 42.7447C37.9363 42.0845 37.1147 41.7544 36.0363 41.7544C34.958 41.7544 34.1364 42.0698 33.5642 42.7007C32.9921 43.3316 32.7096 44.2889 32.7096 45.5726C32.7096 46.926 32.9884 47.9273 33.5496 48.5765C34.1107 49.2257 34.9397 49.5485 36.0363 49.5485C37.133 49.5485 37.9509 49.2294 38.5158 48.5912" fill="white"/>
<path d="M46.9591 51.3127C45.8478 50.1903 45.2903 48.5252 45.2903 46.3135V38.49H49.6807V46.6912C49.6807 47.6522 49.8934 48.3564 50.3152 48.8039C50.737 49.2514 51.3715 49.4751 52.2151 49.4751C53.0587 49.4751 53.6896 49.2514 54.1114 48.8039C54.5295 48.3564 54.7386 47.6522 54.7386 46.6912V38.49H59.0593V46.3135C59.0593 48.5178 58.5054 50.183 57.4014 51.309C56.2974 52.435 54.5662 52.9962 52.2151 52.9962C49.8641 52.9962 48.0705 52.4351 46.9591 51.3127Z" fill="white"/>
<path d="M60.9262 38.7835C62.6134 38.4607 64.2859 38.2993 65.9437 38.2993C68.3682 38.2993 70.1691 38.7321 71.3428 39.6014C72.5201 40.467 73.107 41.8241 73.107 43.669C73.107 45.5139 72.5421 46.7793 71.4088 47.6816C70.2791 48.5839 68.6212 49.035 66.4426 49.035L65.852 49.024C65.731 49.0167 65.5476 49.013 65.3092 49.013V52.8055H60.9188V38.7835H60.9262ZM67.84 45.701C68.1884 45.5543 68.4489 45.3195 68.6176 44.9968C68.79 44.6703 68.8743 44.2302 68.8743 43.6763C68.8743 42.8841 68.6763 42.3082 68.2765 41.9561C67.8767 41.6004 67.2421 41.4243 66.3729 41.4243C65.9731 41.4243 65.621 41.45 65.3202 41.5013V45.844C65.6833 45.8954 66.0721 45.921 66.4902 45.921C67.0441 45.921 67.4952 45.8477 67.8437 45.7046" fill="white"/>
<path d="M0.91333 34.6682L35.5816 0V18.9993H29.7351V14.0734L9.14025 34.6682H0.91333Z" fill="white"/>
<path d="M63.9742 34.6682L61.502 32.2218L43.5371 14.2568L43.3757 14.0991V18.9993H37.5292V0L72.1974 34.6682H63.9742Z" fill="white"/>
<path d="M33.2231 34.6683V26.7935H19.7695L25.616 20.947H47.4726L53.3191 26.7935H39.8875V34.6683H33.2231Z" fill="white"/>
</svg>
