<svg width="42" height="42" viewBox="0 0 42 42" fill="none" xmlns="http://www.w3.org/2000/svg">
<g clip-path="url(#clip0_27_356)">
<path d="M12.25 8.75C13.7183 8.75 15.0448 9.359 15.9985 10.3355C15.5173 10.6733 15.0763 11.06 14.672 11.4835C14.042 10.878 13.1915 10.5 12.25 10.5C10.3197 10.5 8.75 12.0697 8.75 14C8.75 15.9303 10.3197 17.5 12.25 17.5C12.25 18.0933 12.3112 18.6725 12.425 19.2325C12.3655 19.2342 12.3095 19.25 12.25 19.25C9.3555 19.25 7 16.8945 7 14C7 11.1055 9.3555 8.75 12.25 8.75ZM29.75 10.5C31.6803 10.5 33.25 12.0697 33.25 14C33.25 15.9303 31.6803 17.5 29.75 17.5C29.75 18.0933 29.6887 18.6725 29.575 19.2325C29.6345 19.2342 29.6905 19.25 29.75 19.25C32.6445 19.25 35 16.8945 35 14C35 11.1055 32.6445 8.75 29.75 8.75C28.2817 8.75 26.9552 9.359 26.0015 10.3355C26.4827 10.6733 26.9237 11.06 27.328 11.4835C27.958 10.878 28.8085 10.5 29.75 10.5ZM15.75 17.5C15.75 14.6055 18.1055 12.25 21 12.25C23.8945 12.25 26.25 14.6055 26.25 17.5C26.25 20.3945 23.8945 22.75 21 22.75C18.1055 22.75 15.75 20.3945 15.75 17.5ZM17.5 17.5C17.5 19.4303 19.0697 21 21 21C22.9303 21 24.5 19.4303 24.5 17.5C24.5 15.5697 22.9303 14 21 14C19.0697 14 17.5 15.5697 17.5 17.5ZM1.75 4.375C1.75 2.92775 2.92775 1.75 4.375 1.75H12.25V0H4.375C1.9635 0 0 1.96175 0 4.375V12.25H1.75V4.375ZM1.75 37.625V29.75H0V37.625C0 40.0382 1.9635 42 4.375 42H12.25V40.25H4.375C2.92775 40.25 1.75 39.0723 1.75 37.625ZM40.25 37.625C40.25 39.0723 39.0723 40.25 37.625 40.25H29.75V42H37.625C40.0365 42 42 40.0382 42 37.625V29.75H40.25V37.625ZM37.625 0H29.75V1.75H37.625C39.0723 1.75 40.25 2.92775 40.25 4.375V12.25H42V4.375C42 1.96175 40.0365 0 37.625 0ZM23.625 26.25H18.375C15.9635 26.25 14 28.2118 14 30.625V33.25H15.75V30.625C15.75 29.1777 16.9277 28 18.375 28H23.625C25.0723 28 26.25 29.1777 26.25 30.625V33.25H28V30.625C28 28.2118 26.0365 26.25 23.625 26.25ZM35 27.125V29.75H36.75V27.125C36.75 24.7118 34.7865 22.75 32.375 22.75H27.125C26.5912 22.75 26.0855 22.8603 25.613 23.0352C26.691 23.3188 27.6675 23.8228 28.5145 24.5H32.375C33.8223 24.5 35 25.6777 35 27.125ZM14.875 22.75H9.625C7.2135 22.75 5.25 24.7118 5.25 27.125V29.75H7V27.125C7 25.6777 8.17775 24.5 9.625 24.5H13.4855C14.3307 23.8228 15.309 23.3188 16.387 23.0352C15.9145 22.8603 15.4087 22.75 14.875 22.75Z" fill="#F3BE7C"/>
</g>
<defs>
<clipPath id="clip0_27_356">
<rect width="42" height="42" fill="white"/>
</clipPath>
</defs>
</svg>
