<svg width="33" height="33" viewBox="0 0 33 33" fill="none" xmlns="http://www.w3.org/2000/svg">
<path d="M16.5 13.75C14.2257 13.75 12.375 15.6007 12.375 17.875C12.375 20.1493 14.2257 22 16.5 22C18.7743 22 20.625 20.1493 20.625 17.875C20.625 15.6007 18.7743 13.75 16.5 13.75ZM16.5 20.625C14.9834 20.625 13.75 19.3916 13.75 17.875C13.75 16.3584 14.9834 15.125 16.5 15.125C18.0166 15.125 19.25 16.3584 19.25 17.875C19.25 19.3916 18.0166 20.625 16.5 20.625ZM20.2221 0H6.1875C4.29275 0 2.75 1.54275 2.75 3.4375V33H30.25V10.0279L20.2221 0ZM20.625 2.34713L27.9029 9.625H20.625V2.34713ZM22 31.625H11V28.1875C11 27.0504 11.9254 26.125 13.0625 26.125H19.9375C21.0746 26.125 22 27.0504 22 28.1875V31.625ZM23.375 31.625V28.1875C23.375 26.2927 21.8336 24.75 19.9375 24.75H13.0625C11.1678 24.75 9.625 26.2927 9.625 28.1875V31.625H4.125V3.4375C4.125 2.30037 5.05037 1.375 6.1875 1.375H19.25V11H28.875V31.625H23.375Z" fill="white" fill-opacity="0.5"/>
</svg>
