<svg width="53" height="53" viewBox="0 0 53 53" fill="none" xmlns="http://www.w3.org/2000/svg">
<g clip-path="url(#clip0_27_251)">
<path d="M19.875 26.5C27.1824 26.5 33.125 20.5574 33.125 13.25C33.125 5.94262 27.1824 0 19.875 0C12.5676 0 6.625 5.94262 6.625 13.25C6.625 20.5574 12.5676 26.5 19.875 26.5ZM19.875 2.20833C25.9634 2.20833 30.9167 7.16162 30.9167 13.25C30.9167 19.3384 25.9634 24.2917 19.875 24.2917C13.7866 24.2917 8.83333 19.3384 8.83333 13.25C8.83333 7.16162 13.7866 2.20833 19.875 2.20833ZM9.9375 30.9167H23.3112C22.9115 31.6012 22.6001 32.3388 22.3969 33.125H9.9375C5.67542 33.125 2.20833 36.5921 2.20833 40.8542V53H0V40.8542C0 35.3753 4.45862 30.9167 9.9375 30.9167ZM48.5833 30.9167H46.375V29.8125C46.375 27.9862 44.8888 26.5 43.0625 26.5H36.4375C34.6112 26.5 33.125 27.9862 33.125 29.8125V30.9167H30.9167C28.4809 30.9167 26.5 32.8975 26.5 35.3333V53H53V35.3333C53 32.8975 51.0191 30.9167 48.5833 30.9167ZM35.3333 29.8125C35.3333 29.203 35.828 28.7083 36.4375 28.7083H43.0625C43.672 28.7083 44.1667 29.203 44.1667 29.8125V30.9167H35.3333V29.8125ZM30.9167 33.125H48.5833C49.8001 33.125 50.7917 34.1165 50.7917 35.3333V39.75H28.7083V35.3333C28.7083 34.1165 29.6999 33.125 30.9167 33.125ZM28.7083 50.7917V41.9583H38.6458V46.375H40.8542V41.9583H50.7917V50.7917H28.7083Z" fill="#F3BE7C"/>
</g>
<defs>
<clipPath id="clip0_27_251">
<rect width="53" height="53" fill="white"/>
</clipPath>
</defs>
</svg>
