<svg width="104" height="11" viewBox="0 0 104 11" fill="none" xmlns="http://www.w3.org/2000/svg">
<path d="M0.666667 5.5C0.666667 8.44552 3.05448 10.8333 6 10.8333C8.94552 10.8333 11.3333 8.44552 11.3333 5.5C11.3333 2.55448 8.94552 0.166667 6 0.166667C3.05448 0.166667 0.666667 2.55448 0.666667 5.5ZM92.6667 5.5C92.6667 8.44552 95.0545 10.8333 98 10.8333C100.946 10.8333 103.333 8.44552 103.333 5.5C103.333 2.55448 100.946 0.166667 98 0.166667C95.0545 0.166667 92.6667 2.55448 92.6667 5.5ZM6 6.5H98V4.5H6V6.5Z" fill="#F3BE7C"/>
</svg>
