<svg width="53" height="53" viewBox="0 0 53 53" fill="none" xmlns="http://www.w3.org/2000/svg">
<g clip-path="url(#clip0_27_237)">
<path d="M2.20833 50.7917H22.0833V53H0V5.52083C0 2.47554 2.47554 0 5.52083 0H29.8125C32.8578 0 35.3333 2.47554 35.3333 5.52083V22.196C34.5516 22.3086 33.8118 22.5294 33.125 22.8607V5.52083C33.125 3.69454 31.6388 2.20833 29.8125 2.20833H5.52083C3.69454 2.20833 2.20833 3.69454 2.20833 5.52083V50.7917ZM15.4583 28.7083H8.83333V30.9167H15.4583V28.7083ZM8.83333 39.75H15.4583V37.5417H8.83333V39.75ZM15.4583 11.0417H8.83333V13.25H15.4583V11.0417ZM26.5 11.0417H19.875V13.25H26.5V11.0417ZM15.4583 19.875H8.83333V22.0833H15.4583V19.875ZM19.875 22.0833H26.5V19.875H19.875V22.0833ZM53 35.3333V53H26.5V35.3333C26.5 32.8975 28.4809 30.9167 30.9167 30.9167H33.125V29.8125C33.125 27.9862 34.6112 26.5 36.4375 26.5H43.0625C44.8888 26.5 46.375 27.9862 46.375 29.8125V30.9167H48.5833C51.0191 30.9167 53 32.8975 53 35.3333ZM35.3333 30.9167H44.1667V29.8125C44.1667 29.2052 43.6698 28.7083 43.0625 28.7083H36.4375C35.8302 28.7083 35.3333 29.2052 35.3333 29.8125V30.9167ZM28.7083 35.3333V39.75H50.7917V35.3333C50.7917 34.1143 49.8023 33.125 48.5833 33.125H30.9167C29.6977 33.125 28.7083 34.1143 28.7083 35.3333ZM50.7917 50.7917V41.9583H40.8542V46.375H38.6458V41.9583H28.7083V50.7917H50.7917ZM19.875 30.9167H23.3112C23.7992 30.0819 24.4109 29.3399 25.1352 28.7083H19.875V30.9167Z" fill="#F3BE7C"/>
</g>
<defs>
<clipPath id="clip0_27_237">
<rect width="53" height="53" fill="white"/>
</clipPath>
</defs>
</svg>
